<svg xmlns="http://www.w3.org/2000/svg" viewBox="0 0 880 560">
    <defs>
        <linearGradient id="previewBackground" x1="0" y1="0" x2="1" y2="1">
            <stop offset="0" stop-color="#f9f5fc"/>
            <stop offset="1" stop-color="#eee5f5"/>
        </linearGradient>

        <linearGradient id="previewPurple" x1="0" y1="0" x2="1" y2="1">
            <stop offset="0" stop-color="#70418f"/>
            <stop offset="1" stop-color="#43205f"/>
        </linearGradient>

        <filter id="previewShadow">
            <feDropShadow dx="0" dy="18" stdDeviation="18" flood-color="#30183f" flood-opacity=".16"/>
        </filter>
    </defs>

    <rect width="880" height="560" rx="32" fill="url(#previewBackground)"/>

    <rect
        x="25"
        y="25"
        width="830"
        height="510"
        rx="25"
        fill="#ffffff"
        filter="url(#previewShadow)"
    />

    <rect x="25" y="25" width="178" height="510" rx="25" fill="url(#previewPurple)"/>
    <rect x="180" y="25" width="23" height="510" fill="url(#previewPurple)"/>

    <circle cx="72" cy="72" r="22" fill="#59dab4"/>
    <path d="M62 72 H82 M72 62 V82" stroke="#ffffff" stroke-width="5" stroke-linecap="round"/>

    <text x="105" y="79" fill="#ffffff" font-family="Arial, sans-serif" font-size="21" font-weight="700">
        QuickBite
    </text>

    <g font-family="Arial, sans-serif" font-size="14">
        <rect x="46" y="120" width="136" height="42" rx="12" fill="#ffffff" fill-opacity=".14"/>
        <text x="68" y="146" fill="#ffffff" font-weight="700">Overview</text>

        <text x="68" y="199" fill="#dfcaec">Restaurants</text>
        <text x="68" y="242" fill="#dfcaec">Orders</text>
        <text x="68" y="285" fill="#dfcaec">Customers</text>
        <text x="68" y="328" fill="#dfcaec">Refunds</text>
        <text x="68" y="371" fill="#dfcaec">Support</text>
        <text x="68" y="414" fill="#dfcaec">Settings</text>
    </g>

    <text x="238" y="74" fill="#291735" font-family="Arial, sans-serif" font-size="25" font-weight="700">
        Operations overview
    </text>

    <text x="238" y="100" fill="#81758a" font-family="Arial, sans-serif" font-size="13">
        Everything that needs your attention today
    </text>

    <g font-family="Arial, sans-serif">
        <g>
            <rect x="238" y="127" width="137" height="94" rx="16" fill="#faf7fc" stroke="#eadff0"/>
            <text x="255" y="153" fill="#82768a" font-size="12">Orders today</text>
            <text x="255" y="190" fill="#3e2052" font-size="28" font-weight="700">1,284</text>
            <text x="255" y="208" fill="#219b76" font-size="11">+12.4%</text>
        </g>

        <g>
            <rect x="391" y="127" width="137" height="94" rx="16" fill="#faf7fc" stroke="#eadff0"/>
            <text x="408" y="153" fill="#82768a" font-size="12">Active partners</text>
            <text x="408" y="190" fill="#3e2052" font-size="28" font-weight="700">148</text>
            <text x="408" y="208" fill="#219b76" font-size="11">6 new today</text>
        </g>

        <g>
            <rect x="544" y="127" width="137" height="94" rx="16" fill="#faf7fc" stroke="#eadff0"/>
            <text x="561" y="153" fill="#82768a" font-size="12">Gross value</text>
            <text x="561" y="190" fill="#3e2052" font-size="25" font-weight="700">&#8377;4.8L</text>
            <text x="561" y="208" fill="#219b76" font-size="11">+8.7%</text>
        </g>

        <g>
            <rect x="697" y="127" width="133" height="94" rx="16" fill="#faf7fc" stroke="#eadff0"/>
            <text x="714" y="153" fill="#82768a" font-size="12">Open issues</text>
            <text x="714" y="190" fill="#3e2052" font-size="28" font-weight="700">23</text>
            <text x="714" y="208" fill="#d05a63" font-size="11">4 urgent</text>
        </g>
    </g>

    <rect x="238" y="243" width="365" height="246" rx="18" fill="#ffffff" stroke="#eadff0"/>
    <text x="260" y="275" fill="#3e2052" font-family="Arial, sans-serif" font-size="16" font-weight="700">
        Order activity
    </text>

    <g stroke="#eee7f2" stroke-width="1">
        <path d="M263 316 H579"/>
        <path d="M263 360 H579"/>
        <path d="M263 404 H579"/>
        <path d="M263 448 H579"/>
    </g>

    <path
        d="M269 421 C310 402 320 356 360 371 C397 384 412 315 453 332 C492 349 505 285 548 300 C565 306 573 287 584 278"
        fill="none"
        stroke="#5b2e78"
        stroke-width="5"
        stroke-linecap="round"
    />

    <path
        d="M269 441 C310 424 329 404 364 414 C405 425 420 376 461 390 C500 403 522 361 584 349"
        fill="none"
        stroke="#59d9b3"
        stroke-width="4"
        stroke-linecap="round"
    />

    <rect x="621" y="243" width="209" height="246" rx="18" fill="#ffffff" stroke="#eadff0"/>
    <text x="643" y="275" fill="#3e2052" font-family="Arial, sans-serif" font-size="16" font-weight="700">
        Live orders
    </text>

    <g font-family="Arial, sans-serif">
        <g>
            <circle cx="650" cy="315" r="8" fill="#59d9b3"/>
            <text x="669" y="313" fill="#422651" font-size="12" font-weight="700">QB-78491</text>
            <text x="669" y="330" fill="#8a7d91" font-size="10">Preparing &#183; &#8377;628</text>
        </g>

        <path d="M643 350 H808" stroke="#eee7f2"/>

        <g>
            <circle cx="650" cy="377" r="8" fill="#f1bd5e"/>
            <text x="669" y="375" fill="#422651" font-size="12" font-weight="700">QB-78488</text>
            <text x="669" y="392" fill="#8a7d91" font-size="10">Partner assigned &#183; &#8377;412</text>
        </g>

        <path d="M643 412 H808" stroke="#eee7f2"/>

        <g>
            <circle cx="650" cy="439" r="8" fill="#765095"/>
            <text x="669" y="437" fill="#422651" font-size="12" font-weight="700">QB-78480</text>
            <text x="669" y="454" fill="#8a7d91" font-size="10">Delivered &#183; &#8377;795</text>
        </g>
    </g>
</svg>
